<svg xmlns="http://www.w3.org/2000/svg" viewBox="0 0 1200 360" role="img" aria-labelledby="title desc">
  <title id="title">Looking Glass</title>
  <desc id="desc">A luminous terminal window opening onto a geometric glass portal.</desc>
  <defs>
    <linearGradient id="bg" x1="0" y1="0" x2="1" y2="1">
      <stop offset="0" stop-color="#080b18"/>
      <stop offset="0.55" stop-color="#11152c"/>
      <stop offset="1" stop-color="#24113b"/>
    </linearGradient>
    <linearGradient id="portal" x1="0" y1="0" x2="1" y2="1">
      <stop offset="0" stop-color="#62e6ff"/>
      <stop offset="0.5" stop-color="#8d9bff"/>
      <stop offset="1" stop-color="#e18cff"/>
    </linearGradient>
    <linearGradient id="glass" x1="0" y1="0" x2="0.9" y2="1">
      <stop offset="0" stop-color="#d9fbff" stop-opacity="0.9"/>
      <stop offset="0.45" stop-color="#7edfff" stop-opacity="0.25"/>
      <stop offset="1" stop-color="#d19cff" stop-opacity="0.65"/>
    </linearGradient>
    <filter id="glow" x="-50%" y="-50%" width="200%" height="200%">
      <feGaussianBlur stdDeviation="7" result="blur"/>
      <feMerge><feMergeNode in="blur"/><feMergeNode in="SourceGraphic"/></feMerge>
    </filter>
    <filter id="soft" x="-50%" y="-50%" width="200%" height="200%">
      <feGaussianBlur stdDeviation="22"/>
    </filter>
    <pattern id="grid" width="34" height="34" patternUnits="userSpaceOnUse">
      <path d="M34 0H0V34" fill="none" stroke="#8ca5ff" stroke-opacity="0.09"/>
    </pattern>
  </defs>

  <rect width="1200" height="360" rx="28" fill="url(#bg)"/>
  <rect x="1" y="1" width="1198" height="358" rx="27" fill="none" stroke="#8ea6ff" stroke-opacity="0.25"/>
  <ellipse cx="690" cy="180" rx="330" ry="180" fill="#7d5cff" fill-opacity="0.16" filter="url(#soft)"/>
  <path d="M0 282C240 245 390 316 620 278S1000 195 1200 232V360H0Z" fill="url(#grid)"/>

  <g opacity="0.7" fill="#c7f7ff">
    <circle cx="72" cy="58" r="2"/><circle cx="188" cy="102" r="1.5"/><circle cx="426" cy="42" r="1.5"/>
    <circle cx="1024" cy="58" r="2"/><circle cx="1110" cy="132" r="1.5"/><circle cx="954" cy="286" r="1.5"/>
  </g>

  <g transform="translate(80 74)">
    <rect width="430" height="212" rx="18" fill="#050711" fill-opacity="0.88" stroke="#62e6ff" stroke-opacity="0.7"/>
    <rect x="18" y="48" width="394" height="142" rx="9" fill="#0b1021" stroke="#9ba9ff" stroke-opacity="0.24"/>
    <path d="M18 48H412" stroke="#62e6ff" stroke-opacity="0.45"/>
    <circle cx="36" cy="25" r="5" fill="#ff728d"/><circle cx="56" cy="25" r="5" fill="#ffd166"/><circle cx="76" cy="25" r="5" fill="#70e1a0"/>
    <g fill="#91a7ff" font-family="monospace" font-size="15">
      <text x="36" y="82">$ glass run "open the portal"</text>
      <text x="36" y="113" fill="#70e1a0">[session] context restored</text>
      <text x="36" y="144" fill="#62e6ff">[tools] workspace ready</text>
      <text x="36" y="175"><tspan fill="#e7d3ff">_</tspan><tspan fill="#b98cff"> durable by design</tspan></text>
    </g>
  </g>

  <g transform="translate(635 180)" filter="url(#glow)">
    <path d="M0 -116L108 -54L108 70L0 132L-108 70L-108 -54Z" fill="#101735" stroke="url(#portal)" stroke-width="4"/>
    <path d="M0 -82L78 -37L78 52L0 97L-78 52L-78 -37Z" fill="url(#glass)" fill-opacity="0.18" stroke="#b7ecff" stroke-opacity="0.65" stroke-width="2"/>
    <path d="M0 -66L58 -32L58 38L0 72L-58 38L-58 -32Z" fill="none" stroke="#e3c2ff" stroke-opacity="0.7" stroke-width="2"/>
  </g>

  <g fill="#d9fbff" font-family="system-ui, -apple-system, sans-serif">
    <text x="760" y="105" font-size="17" letter-spacing="5" fill="#8fa9ff">LOCAL AI WORKSPACE</text>
    <text x="760" y="160" font-size="43" font-weight="700" letter-spacing="2">LOOKING GLASS</text>
    <text x="760" y="210" font-size="18" fill="#b9c8ff">Durable sessions. Scheduled intelligence.</text>
    <text x="760" y="244" font-size="14" fill="#8c9ac5">A terminal chat interface for work that remembers where it left off.</text>
  </g>
  <text x="760" y="304" fill="#62e6ff" font-family="monospace" font-size="13">glass  |  sessions  |  tools  |  agents  |  scheduler</text>
</svg>
